<svg xmlns="http://www.w3.org/2000/svg" xmlns:xlink="http://www.w3.org/1999/xlink" width="210px" height="57px" viewBox="0 0 210 57"><title>69077902-6644-42D2-ACF9-5A02AA36EDE3</title><g id="Public---Desktop" stroke="none" stroke-width="1" fill="none" fill-rule="evenodd"><g id="Cyclis.General-redesign" transform="translate(-615.000000, -871.000000)" fill-rule="nonzero"><g id="Cyclis_Illustration_distance" transform="translate(615.000000, 871.000000)"><polygon id="Path" fill="#E2E4EA" points="206.486692 42.5589354 4.31178707 42.5589354 20.2813688 22.2775665 190.51711 22.2775665"></polygon><g id="Group" transform="translate(16.768061, 29.543726)" fill="#FFFFFF"><path d="M7.90494297,2.23574144 L1.51711027,2.23574144 C1.03802281,2.23574144 0.718631179,1.91634981 0.718631179,1.43726236 C0.718631179,0.958174905 1.03802281,0.63878327 1.51711027,0.63878327 L7.90494297,0.63878327 C8.38403042,0.63878327 8.70342205,0.958174905 8.70342205,1.43726236 C8.70342205,1.91634981 8.38403042,2.23574144 7.90494297,2.23574144 Z" id="Path"></path><path d="M156.901141,2.23574144 L144.524715,2.23574144 C144.045627,2.23574144 143.726236,1.91634981 143.726236,1.43726236 C143.726236,0.958174905 144.045627,0.63878327 144.524715,0.63878327 L156.901141,0.63878327 C157.380228,0.63878327 157.69962,0.958174905 157.69962,1.43726236 C157.69962,1.91634981 157.380228,2.23574144 156.901141,2.23574144 Z M132.068441,2.23574144 L119.692015,2.23574144 C119.212928,2.23574144 118.893536,1.91634981 118.893536,1.43726236 C118.893536,0.958174905 119.212928,0.63878327 119.692015,0.63878327 L132.068441,0.63878327 C132.547529,0.63878327 132.86692,0.958174905 132.86692,1.43726236 C132.86692,1.91634981 132.547529,2.23574144 132.068441,2.23574144 Z M107.235741,2.23574144 L94.8593156,2.23574144 C94.3802281,2.23574144 94.0608365,1.91634981 94.0608365,1.43726236 C94.0608365,0.958174905 94.3802281,0.63878327 94.8593156,0.63878327 L107.235741,0.63878327 C107.714829,0.63878327 108.034221,0.958174905 108.034221,1.43726236 C108.034221,1.91634981 107.714829,2.23574144 107.235741,2.23574144 Z M82.4030418,2.23574144 L70.026616,2.23574144 C69.5475285,2.23574144 69.2281369,1.91634981 69.2281369,1.43726236 C69.2281369,0.958174905 69.5475285,0.63878327 70.026616,0.63878327 L82.4030418,0.63878327 C82.8821293,0.63878327 83.2015209,0.958174905 83.2015209,1.43726236 C83.2015209,1.91634981 82.8821293,2.23574144 82.4030418,2.23574144 Z M57.5703422,2.23574144 L45.1939163,2.23574144 C44.7148289,2.23574144 44.3954373,1.91634981 44.3954373,1.43726236 C44.3954373,0.958174905 44.7148289,0.63878327 45.1939163,0.63878327 L57.5703422,0.63878327 C58.0494297,0.63878327 58.3688213,0.958174905 58.3688213,1.43726236 C58.3688213,1.91634981 58.0494297,2.23574144 57.5703422,2.23574144 Z M32.7376426,2.23574144 L20.3612167,2.23574144 C19.8821293,2.23574144 19.5627376,1.91634981 19.5627376,1.43726236 C19.5627376,0.958174905 19.8821293,0.63878327 20.3612167,0.63878327 L32.7376426,0.63878327 C33.21673,0.63878327 33.5361217,0.958174905 33.5361217,1.43726236 C33.5361217,1.91634981 33.21673,2.23574144 32.7376426,2.23574144 Z" id="Shape"></path><path d="M175.745247,2.23574144 L169.357414,2.23574144 C168.878327,2.23574144 168.558935,1.91634981 168.558935,1.43726236 C168.558935,0.958174905 168.878327,0.63878327 169.357414,0.63878327 L175.745247,0.63878327 C176.224335,0.63878327 176.543726,0.958174905 176.543726,1.43726236 C176.543726,1.91634981 176.144487,2.23574144 175.745247,2.23574144 Z" id="Path"></path></g><g id="Group" transform="translate(69.467681, 0.000000)" fill="#524FA2"><path d="M57.4904943,13.0152091 C63.878327,13.0152091 69.0684411,18.2053232 69.0684411,24.5931559 C69.0684411,30.9809886 63.878327,36.1711027 57.4904943,36.1711027 C51.1026616,36.1711027 45.9125475,30.9809886 45.9125475,24.5931559 C45.9125475,18.2053232 51.1026616,13.0152091 57.4904943,13.0152091 M57.4904943,10.7794677 C49.8250951,10.7794677 43.6768061,17.0076046 43.6768061,24.5931559 C43.6768061,32.1787072 49.904943,38.4068441 57.4904943,38.4068441 C65.1558935,38.4068441 71.3041825,32.1787072 71.3041825,24.5931559 C71.3041825,17.0076046 65.1558935,10.7794677 57.4904943,10.7794677 L57.4904943,10.7794677 Z" id="Shape"></path><path d="M14.3726236,13.0152091 C20.7604563,13.0152091 25.9505703,18.2053232 25.9505703,24.5931559 C25.9505703,30.9809886 20.7604563,36.1711027 14.3726236,36.1711027 C7.98479087,36.1711027 2.79467681,30.9809886 2.79467681,24.5931559 C2.79467681,18.2053232 7.90494297,13.0152091 14.3726236,13.0152091 M14.3726236,10.7794677 C6.70722433,10.7794677 0.558935361,17.0076046 0.558935361,24.5931559 C0.558935361,32.1787072 6.78707224,38.4068441 14.3726236,38.4068441 C22.0380228,38.4068441 28.1863118,32.1787072 28.1863118,24.5931559 C28.1863118,17.0076046 21.9581749,10.7794677 14.3726236,10.7794677 L14.3726236,10.7794677 Z" id="Shape"></path><path d="M34.973384,28.3460076 C32.7376426,28.3460076 30.8212928,26.5095057 30.8212928,24.1939163 C30.8212928,21.878327 32.6577947,20.0418251 34.973384,20.0418251 C37.2889734,20.0418251 39.1254753,21.878327 39.1254753,24.1939163 C39.1254753,26.5095057 37.2091255,28.3460076 34.973384,28.3460076 Z M34.973384,22.3574144 C33.9353612,22.3574144 33.1368821,23.2357414 33.1368821,24.1939163 C33.1368821,25.1520913 34.0152091,26.0304183 34.973384,26.0304183 C36.0114068,26.0304183 36.8098859,25.1520913 36.8098859,24.1939163 C36.8098859,23.2357414 36.0114068,22.3574144 34.973384,22.3574144 Z" id="Shape"></path><path d="M34.1749049,31.3802281 C34.095057,31.3802281 34.095057,31.3802281 34.0152091,31.3802281 C33.3764259,31.3003802 32.9771863,30.7414449 33.0570342,30.1026616 L33.4562738,27.0684411 C33.5361217,26.4296578 34.095057,26.0304183 34.7338403,26.1102662 C35.3726236,26.1901141 35.7718631,26.7490494 35.6920152,27.3878327 L35.2927757,30.4220532 C35.2129278,30.9809886 34.7338403,31.3802281 34.1749049,31.3802281 Z" id="Path"></path><path d="M35.3726236,22.4372624 C35.2927757,22.4372624 35.2927757,22.4372624 35.2129278,22.4372624 C34.5741445,22.3574144 34.1749049,21.7984791 34.2547529,21.1596958 L34.6539924,18.2851711 C34.7338403,17.6463878 35.2927757,17.2471483 35.9315589,17.3269962 C36.5703422,17.4068441 36.9695817,17.9657795 36.8897338,18.6045627 L36.4904943,21.4790875 C36.4106464,22.0380228 35.9315589,22.4372624 35.3726236,22.4372624 Z" id="Path"></path><path d="M31.9391635,25.6311787 L14.6920152,25.6311787 C14.2927757,25.6311787 13.8935361,25.391635 13.7338403,25.0722433 C13.5741445,24.7528517 13.5741445,24.2737643 13.7338403,23.9543726 L24.5931559,6.30798479 C24.8326996,5.98859316 25.1520913,5.74904943 25.5513308,5.74904943 L48.8669202,5.74904943 C49.2661597,5.74904943 49.6653992,5.98859316 49.904943,6.3878327 C50.1444867,6.78707224 50.0646388,7.2661597 49.7452471,7.58555133 L37.6882129,22.6768061 C37.2889734,23.1558935 36.5703422,23.2357414 36.0912548,22.8365019 C35.6121673,22.4372624 35.5323194,21.7186312 35.9315589,21.2395437 L46.5513308,7.98479087 L26.1901141,7.98479087 L16.6882129,23.3954373 L31.9391635,23.3954373 C32.5779468,23.3954373 33.0570342,23.8745247 33.0570342,24.513308 C33.0570342,25.1520913 32.5779468,25.6311787 31.9391635,25.6311787 Z" id="Path"></path><path d="M57.5703422,25.5513308 C57.1711027,25.5513308 56.7718631,25.3117871 56.5323194,24.9125475 L47.9087452,7.42585551 C47.8288973,7.2661597 47.8288973,7.10646388 47.8288973,6.94676806 L47.8288973,1.19771863 C47.8288973,0.558935361 48.3079848,0.0798479087 48.9467681,0.0798479087 L55.5741445,0.0798479087 C56.2129278,0.0798479087 56.6920152,0.558935361 56.6920152,1.19771863 C56.6920152,1.8365019 56.2129278,2.31558935 55.5741445,2.31558935 L50.0646388,2.31558935 L50.0646388,6.62737643 L58.608365,23.8745247 C58.8479087,24.4334601 58.6882129,25.0722433 58.1292776,25.391635 C57.8897338,25.4714829 57.730038,25.5513308 57.5703422,25.5513308 Z" id="Path"></path><path d="M33.5361217,22.6768061 C33.1368821,22.6768061 32.7376426,22.4372624 32.5779468,22.1178707 L22.756654,3.59315589 C22.4372624,3.03422053 22.6768061,2.39543726 23.2357414,2.07604563 C23.7946768,1.75665399 24.4334601,1.99619772 24.7528517,2.55513308 L34.5741445,21.0798479 C34.8935361,21.6387833 34.6539924,22.2775665 34.095057,22.5969582 C33.8555133,22.6768061 33.6958175,22.6768061 33.5361217,22.6768061 Z" id="Path"></path><path d="M29.8631179,4.07224335 L20.0418251,4.07224335 C19.4030418,4.07224335 18.9239544,3.59315589 18.9239544,2.95437262 C18.9239544,2.31558935 19.4030418,1.8365019 20.0418251,1.8365019 L29.8631179,1.8365019 C30.5019011,1.8365019 30.9809886,2.31558935 30.9809886,2.95437262 C30.9809886,3.59315589 30.5019011,4.07224335 29.8631179,4.07224335 Z" id="Path"></path></g><circle id="Oval" fill="#524FA2" cx="4.31178707" cy="52.9391635" r="3.83269962"></circle><circle id="Oval" fill="#524FA2" cx="205.448669" cy="52.9391635" r="3.83269962"></circle><g id="Group" transform="translate(2.395437, 51.901141)" fill="#524FA2"><path d="M2.47528517,1.43726236 L0.958174905,1.43726236 C0.718631179,1.43726236 0.558935361,1.27756654 0.558935361,1.03802281 C0.558935361,0.798479087 0.718631179,0.63878327 0.958174905,0.63878327 L2.47528517,0.63878327 C2.7148289,0.63878327 2.87452471,0.798479087 2.87452471,1.03802281 C2.87452471,1.27756654 2.63498099,1.43726236 2.47528517,1.43726236 Z" id="Path"></path><path d="M199.460076,1.63878327 L196.346008,1.63878327 C196.106464,1.63878327 195.946768,1.43878327 195.946768,1.13878327 C195.946768,0.83878327 196.106464,0.63878327 196.346008,0.63878327 L199.460076,0.63878327 C199.69962,0.63878327 199.859316,0.83878327 199.859316,1.13878327 C199.859316,1.43878327 199.69962,1.63878327 199.460076,1.63878327 Z M193.311787,1.63878327 L190.197719,1.63878327 C189.958175,1.63878327 189.798479,1.43878327 189.798479,1.13878327 C189.798479,0.83878327 189.958175,0.63878327 190.197719,0.63878327 L193.311787,0.63878327 C193.551331,0.63878327 193.711027,0.83878327 193.711027,1.13878327 C193.711027,1.43878327 193.551331,1.63878327 193.311787,1.63878327 Z M187.163498,1.63878327 L184.04943,1.63878327 C183.809886,1.63878327 183.65019,1.43878327 183.65019,1.13878327 C183.65019,0.83878327 183.809886,0.63878327 184.04943,0.63878327 L187.163498,0.63878327 C187.403042,0.63878327 187.562738,0.83878327 187.562738,1.13878327 C187.562738,1.43878327 187.403042,1.63878327 187.163498,1.63878327 Z M181.015209,1.63878327 L177.901141,1.63878327 C177.661597,1.63878327 177.501901,1.43878327 177.501901,1.13878327 C177.501901,0.83878327 177.661597,0.63878327 177.901141,0.63878327 L181.015209,0.63878327 C181.254753,0.63878327 181.414449,0.83878327 181.414449,1.13878327 C181.414449,1.43878327 181.174905,1.63878327 181.015209,1.63878327 Z M174.86692,1.63878327 L171.752852,1.63878327 C171.513308,1.63878327 171.353612,1.43878327 171.353612,1.13878327 C171.353612,0.83878327 171.513308,0.63878327 171.752852,0.63878327 L174.86692,0.63878327 C175.106464,0.63878327 175.26616,0.83878327 175.26616,1.13878327 C175.26616,1.43878327 175.026616,1.63878327 174.86692,1.63878327 Z M168.638783,1.63878327 L165.524715,1.63878327 C165.285171,1.63878327 165.125475,1.43878327 165.125475,1.13878327 C165.125475,0.83878327 165.285171,0.63878327 165.524715,0.63878327 L168.638783,0.63878327 C168.878327,0.63878327 169.038023,0.83878327 169.038023,1.13878327 C169.038023,1.43878327 168.878327,1.63878327 168.638783,1.63878327 Z M162.490494,1.63878327 L159.376426,1.63878327 C159.136882,1.63878327 158.977186,1.43878327 158.977186,1.13878327 C158.977186,0.83878327 159.136882,0.63878327 159.376426,0.63878327 L162.490494,0.63878327 C162.730038,0.63878327 162.889734,0.83878327 162.889734,1.13878327 C162.889734,1.43878327 162.730038,1.63878327 162.490494,1.63878327 Z M156.342205,1.63878327 L153.307985,1.63878327 C153.068441,1.63878327 152.908745,1.43878327 152.908745,1.13878327 C152.908745,0.83878327 153.068441,0.63878327 153.307985,0.63878327 L156.422053,0.63878327 C156.661597,0.63878327 156.821293,0.83878327 156.821293,1.13878327 C156.821293,1.43878327 156.581749,1.63878327 156.342205,1.63878327 Z M150.193916,1.63878327 L147.079848,1.63878327 C146.840304,1.63878327 146.680608,1.43878327 146.680608,1.13878327 C146.680608,0.83878327 146.840304,0.63878327 147.079848,0.63878327 L150.193916,0.63878327 C150.43346,0.63878327 150.593156,0.83878327 150.593156,1.13878327 C150.593156,1.43878327 150.43346,1.63878327 150.193916,1.63878327 Z M144.045627,1.63878327 L140.931559,1.63878327 C140.692015,1.63878327 140.532319,1.43878327 140.532319,1.13878327 C140.532319,0.83878327 140.692015,0.63878327 140.931559,0.63878327 L144.045627,0.63878327 C144.285171,0.63878327 144.444867,0.83878327 144.444867,1.13878327 C144.444867,1.43878327 144.285171,1.63878327 144.045627,1.63878327 Z M137.897338,1.63878327 L134.78327,1.63878327 C134.543726,1.63878327 134.38403,1.43878327 134.38403,1.13878327 C134.38403,0.83878327 134.543726,0.63878327 134.78327,0.63878327 L137.897338,0.63878327 C138.136882,0.63878327 138.296578,0.83878327 138.296578,1.13878327 C138.296578,1.43878327 138.136882,1.63878327 137.897338,1.63878327 Z M131.749049,1.63878327 L128.634981,1.63878327 C128.395437,1.63878327 128.235741,1.43878327 128.235741,1.13878327 C128.235741,0.83878327 128.395437,0.63878327 128.634981,0.63878327 L131.749049,0.63878327 C131.988593,0.63878327 132.148289,0.83878327 132.148289,1.13878327 C132.148289,1.43878327 131.988593,1.63878327 131.749049,1.63878327 Z M125.60076,1.63878327 L122.486692,1.63878327 C122.247148,1.63878327 122.087452,1.43878327 122.087452,1.13878327 C122.087452,0.83878327 122.247148,0.63878327 122.486692,0.63878327 L125.60076,0.63878327 C125.840304,0.63878327 126,0.83878327 126,1.13878327 C126,1.43878327 125.840304,1.63878327 125.60076,1.63878327 Z M119.452471,1.63878327 L116.338403,1.63878327 C116.098859,1.63878327 115.939163,1.43878327 115.939163,1.13878327 C115.939163,0.83878327 116.098859,0.63878327 116.338403,0.63878327 L119.452471,0.63878327 C119.692015,0.63878327 119.851711,0.83878327 119.851711,1.13878327 C119.851711,1.43878327 119.612167,1.63878327 119.452471,1.63878327 Z M113.304183,1.63878327 L110.190114,1.63878327 C109.95057,1.63878327 109.790875,1.43878327 109.790875,1.13878327 C109.790875,0.83878327 109.95057,0.63878327 110.190114,0.63878327 L113.304183,0.63878327 C113.543726,0.63878327 113.703422,0.83878327 113.703422,1.13878327 C113.703422,1.43878327 113.463878,1.63878327 113.304183,1.63878327 Z M107.076046,1.63878327 L103.961977,1.63878327 C103.722433,1.63878327 103.562738,1.43878327 103.562738,1.13878327 C103.562738,0.83878327 103.722433,0.63878327 103.961977,0.63878327 L107.076046,0.63878327 C107.315589,0.63878327 107.475285,0.83878327 107.475285,1.13878327 C107.475285,1.43878327 107.315589,1.63878327 107.076046,1.63878327 Z M100.927757,1.63878327 L97.8136882,1.63878327 C97.5741445,1.63878327 97.4144487,1.43878327 97.4144487,1.13878327 C97.4144487,0.83878327 97.5741445,0.63878327 97.8136882,0.63878327 L100.927757,0.63878327 C101.1673,0.63878327 101.326996,0.83878327 101.326996,1.13878327 C101.326996,1.43878327 101.1673,1.63878327 100.927757,1.63878327 Z M94.7794677,1.63878327 L91.6653992,1.63878327 C91.4258555,1.63878327 91.2661597,1.43878327 91.2661597,1.13878327 C91.2661597,0.83878327 91.4258555,0.63878327 91.6653992,0.63878327 L94.7794677,0.63878327 C95.0190114,0.63878327 95.1787072,0.83878327 95.1787072,1.13878327 C95.1787072,1.43878327 95.0190114,1.63878327 94.7794677,1.63878327 Z M88.6311787,1.63878327 L85.5171103,1.63878327 C85.2775665,1.63878327 85.1178707,1.43878327 85.1178707,1.13878327 C85.1178707,0.83878327 85.2775665,0.63878327 85.5171103,0.63878327 L88.6311787,0.63878327 C88.8707224,0.63878327 89.0304183,0.83878327 89.0304183,1.13878327 C89.0304183,1.43878327 88.8707224,1.63878327 88.6311787,1.63878327 Z M82.4828897,1.63878327 L79.3688213,1.63878327 C79.1292776,1.63878327 78.9695817,1.43878327 78.9695817,1.13878327 C78.9695817,0.83878327 79.1292776,0.63878327 79.3688213,0.63878327 L82.4828897,0.63878327 C82.7224335,0.63878327 82.8821293,0.83878327 82.8821293,1.13878327 C82.8821293,1.43878327 82.7224335,1.63878327 82.4828897,1.63878327 Z M76.3346008,1.63878327 L73.2205323,1.63878327 C72.9809886,1.63878327 72.8212928,1.43878327 72.8212928,1.13878327 C72.8212928,0.83878327 72.9809886,0.63878327 73.2205323,0.63878327 L76.3346008,0.63878327 C76.5741445,0.63878327 76.7338403,0.83878327 76.7338403,1.13878327 C76.7338403,1.43878327 76.5741445,1.63878327 76.3346008,1.63878327 Z M70.1863118,1.63878327 L67.0722433,1.63878327 C66.8326996,1.63878327 66.6730038,1.43878327 66.6730038,1.13878327 C66.6730038,0.83878327 66.8326996,0.63878327 67.0722433,0.63878327 L70.1863118,0.63878327 C70.4258555,0.63878327 70.5855513,0.83878327 70.5855513,1.13878327 C70.5855513,1.43878327 70.4258555,1.63878327 70.1863118,1.63878327 Z M64.0380228,1.63878327 L60.9239544,1.63878327 C60.6844106,1.63878327 60.5247148,1.43878327 60.5247148,1.13878327 C60.5247148,0.83878327 60.6844106,0.63878327 60.9239544,0.63878327 L64.0380228,0.63878327 C64.2775665,0.63878327 64.4372624,0.83878327 64.4372624,1.13878327 C64.4372624,1.43878327 64.1977186,1.63878327 64.0380228,1.63878327 Z M57.8897338,1.63878327 L54.7756654,1.63878327 C54.5361217,1.63878327 54.3764259,1.43878327 54.3764259,1.13878327 C54.3764259,0.83878327 54.5361217,0.63878327 54.7756654,0.63878327 L57.8897338,0.63878327 C58.1292776,0.63878327 58.2889734,0.83878327 58.2889734,1.13878327 C58.2889734,1.43878327 58.0494297,1.63878327 57.8897338,1.63878327 Z M51.661597,1.63878327 L48.5475285,1.63878327 C48.3079848,1.63878327 48.148289,1.43878327 48.148289,1.13878327 C48.148289,0.83878327 48.3079848,0.63878327 48.5475285,0.63878327 L51.661597,0.63878327 C51.9011407,0.63878327 52.0608365,0.83878327 52.0608365,1.13878327 C52.0608365,1.43878327 51.9011407,1.63878327 51.661597,1.63878327 Z M45.513308,1.63878327 L42.3992395,1.63878327 C42.1596958,1.63878327 42,1.43878327 42,1.13878327 C42,0.83878327 42.1596958,0.63878327 42.3992395,0.63878327 L45.513308,0.63878327 C45.7528517,0.63878327 45.9125475,0.83878327 45.9125475,1.13878327 C45.9125475,1.43878327 45.7528517,1.63878327 45.513308,1.63878327 Z M39.365019,1.63878327 L36.2509506,1.63878327 C36.0114068,1.63878327 35.851711,1.43878327 35.851711,1.13878327 C35.851711,0.83878327 36.0114068,0.63878327 36.2509506,0.63878327 L39.365019,0.63878327 C39.6045627,0.63878327 39.7642586,0.83878327 39.7642586,1.13878327 C39.7642586,1.43878327 39.6045627,1.63878327 39.365019,1.63878327 Z M33.21673,1.63878327 L30.1026616,1.63878327 C29.8631179,1.63878327 29.7034221,1.43878327 29.7034221,1.13878327 C29.7034221,0.83878327 29.8631179,0.63878327 30.1026616,0.63878327 L33.21673,0.63878327 C33.4562738,0.63878327 33.6159696,0.83878327 33.6159696,1.13878327 C33.6159696,1.43878327 33.4562738,1.63878327 33.21673,1.63878327 Z M27.0684411,1.63878327 L23.9543726,1.63878327 C23.7148289,1.63878327 23.5551331,1.43878327 23.5551331,1.13878327 C23.5551331,0.83878327 23.7148289,0.63878327 23.9543726,0.63878327 L27.0684411,0.63878327 C27.3079848,0.63878327 27.4676806,0.83878327 27.4676806,1.13878327 C27.4676806,1.43878327 27.3079848,1.63878327 27.0684411,1.63878327 Z M20.9201521,1.63878327 L17.8060837,1.63878327 C17.5665399,1.63878327 17.4068441,1.43878327 17.4068441,1.13878327 C17.4068441,0.83878327 17.5665399,0.63878327 17.8060837,0.63878327 L20.9201521,0.63878327 C21.1596958,0.63878327 21.3193916,0.83878327 21.3193916,1.13878327 C21.3193916,1.43878327 21.1596958,1.63878327 20.9201521,1.63878327 Z M14.7718631,1.63878327 L11.6577947,1.63878327 C11.418251,1.63878327 11.2585551,1.43878327 11.2585551,1.13878327 C11.2585551,0.83878327 11.418251,0.63878327 11.6577947,0.63878327 L14.7718631,0.63878327 C15.0114068,0.63878327 15.1711027,0.83878327 15.1711027,1.13878327 C15.1711027,1.43878327 15.0114068,1.63878327 14.7718631,1.63878327 Z M8.62357414,1.63878327 L5.5095057,1.63878327 C5.26996198,1.63878327 5.11026616,1.43878327 5.11026616,1.13878327 C5.11026616,0.83878327 5.26996198,0.63878327 5.5095057,0.63878327 L8.62357414,0.63878327 C8.86311787,0.63878327 9.02281369,0.83878327 9.02281369,1.13878327 C9.02281369,1.43878327 8.86311787,1.63878327 8.62357414,1.63878327 Z" id="Shape"></path><path d="M204.091255,1.43726236 L202.574144,1.43726236 C202.334601,1.43726236 202.174905,1.27756654 202.174905,1.03802281 C202.174905,0.798479087 202.334601,0.63878327 202.574144,0.63878327 L204.091255,0.63878327 C204.330798,0.63878327 204.490494,0.798479087 204.490494,1.03802281 C204.490494,1.27756654 204.330798,1.43726236 204.091255,1.43726236 Z" id="Path"></path></g></g></g></g></svg>