<svg xmlns="http://www.w3.org/2000/svg" xmlns:xlink="http://www.w3.org/1999/xlink" width="210px" height="71px" viewBox="0 0 210 71"><title>D527FD13-552E-4D84-AFE7-A091BD3A29BD</title><g id="Public---Desktop" stroke="none" stroke-width="1" fill="none" fill-rule="evenodd"><g id="Cyclis.General-redesign" transform="translate(-194.000000, -858.000000)" fill-rule="nonzero"><g id="happy-cycling" transform="translate(194.000000, 858.000000)"><path d="M85.0268382,30.0253676 C83.7140594,29.4331069 82.183444,29.5985788 81.0275735,30.4577206 C80.2787282,31.0010587 79.745597,31.7911865 79.5220588,32.6889706 C79.4588914,32.9420352 79.4201113,33.2005689 79.40625,33.4610294 C79.323762,35.3512195 80.5821118,37.0386987 82.4172794,37.4988971 C82.6714011,37.5551091 82.9295498,37.5912499 83.1893382,37.6069853 L91.5661765,38.8191176 L92.8014706,30.3264706 L92.8709559,29.8477941 C93.0376529,27.8568168 91.6925151,26.0544646 89.7363971,25.6477941 L89.25,25.5783088 C88.0552885,25.4805222 86.8807426,25.9301376 86.0567133,26.8006968 C85.2326839,27.6712561 84.8481986,28.8687046 85.0113971,30.05625 L85.0268382,30.0253676 Z" id="Path" fill="#E2E4EA"></path><path d="M105.833824,38.6801471 C104.357161,38.0112646 102.659394,38.0343659 101.201478,38.7431788 C99.7435618,39.4519918 98.676794,40.7729579 98.2908088,42.3474265 C98.2144267,42.6878204 98.1653735,43.0337749 98.1441176,43.3819853 C98.0022715,45.9913581 99.7477639,48.3284326 102.290074,48.9330882 C102.62965,49.0152154 102.975874,49.0668907 103.324632,49.0875 L114.859191,50.7628676 L116.580882,39.0507353 L116.673529,38.3867647 C116.920807,35.6404468 115.060891,33.148359 112.357721,32.6040441 L111.69375,32.5113971 C110.04125,32.3581991 108.409986,32.9727384 107.269325,34.1781924 C106.128664,35.3836464 105.605095,37.0463416 105.849265,38.6878676 L105.833824,38.6801471 Z" id="Path" fill="#E2E4EA"></path><path d="M158.573162,3.86029412 C157.808774,3.62125932 156.974874,3.81642748 156.395956,4.36985294 C156.024257,4.71982908 155.788947,5.19044965 155.731985,5.69779412 C155.720276,5.83909608 155.720276,5.98112451 155.731985,6.12242647 C155.815078,7.16873296 156.620868,8.01320044 157.662132,8.14522059 C157.803443,8.15672173 157.945454,8.15672173 158.086765,8.14522059 L162.788603,8.25330882 L162.904412,3.45882353 L162.904412,3.18860294 C162.887574,2.65205506 162.673111,2.1406415 162.302206,1.75257353 C161.930533,1.36602271 161.431288,1.12737305 160.897059,1.08088235 L160.588235,1.08088235 C159.919169,1.10752396 159.29926,1.43948524 158.906229,1.98159773 C158.513197,2.52371022 158.390444,3.21610925 158.573162,3.86029412 L158.573162,3.86029412 Z" id="Path" fill="#E2E4EA"></path><path d="M147.625368,6.17647059 C147.084527,6.00163002 146.491359,6.13805859 146.08125,6.53161765 C145.827647,6.77275608 145.666484,7.09508179 145.625735,7.44264706 C145.614154,7.54009829 145.614154,7.63857818 145.625735,7.73602941 C145.687542,8.45487714 146.238912,9.03509809 146.953676,9.13345588 L147.247059,9.13345588 L150.489706,9.21066176 L150.566912,5.91397059 L150.566912,5.72095588 C150.524926,4.96065916 149.93496,4.34447239 149.177206,4.26948529 L149.007353,4.26948529 C148.637696,4.28801602 148.286992,4.43870911 148.019118,4.69411765 C147.624119,5.0775636 147.472715,5.64755456 147.625368,6.17647059 L147.625368,6.17647059 Z" id="Path" fill="#E2E4EA"></path><path d="M158.827941,17.6338235 C157.923357,17.6503353 157.072801,18.0676439 156.506163,18.7729581 C155.939526,19.4782722 155.71531,20.3987718 155.894118,21.2856618 C155.934336,21.4755754 155.991172,21.6615856 156.063971,21.8415441 C156.622011,23.1883044 158.055163,23.9517897 159.484191,23.6636029 C159.67634,23.6223088 159.864825,23.5655051 160.047794,23.49375 L166.270588,21.6176471 L164.332721,15.2944853 L164.224632,14.9393382 C163.688898,13.4980715 162.15974,12.685395 160.665441,13.0477941 L160.310294,13.1558824 C159.616766,13.4193 159.041239,13.9235715 158.688971,14.5764706 C158.178625,15.5456487 158.231775,16.7149414 158.827941,17.6338235 L158.827941,17.6338235 Z" id="Path" fill="#E2E4EA"></path><circle id="Oval" fill="#E2E4EA" cx="11.3647059" cy="32.3878676" r="5.44301471"></circle><circle id="Oval" fill="#E2E4EA" cx="103.602574" cy="19.8033088" r="3.01875"></circle><circle id="Oval" fill="#E2E4EA" cx="3.11911765" cy="19.9808824" r="3.11911765"></circle><path d="M158.874265,43.4051471 C157.222445,43.4062927 155.585563,43.7179551 154.048897,44.3238971 L151.640074,39.4522059 L151.640074,35.2444853 L156.982721,35.2444853 C157.583939,35.2444853 158.071324,34.7571012 158.071324,34.1558824 C158.071324,33.5546635 157.583939,33.0672794 156.982721,33.0672794 L150.551471,33.0672794 C149.950252,33.0672794 149.462868,33.5546635 149.462868,34.1558824 L149.462868,38.5257353 L128.75625,38.5257353 L127.883824,36.8735294 L132.137868,36.8735294 C132.547257,36.9080982 132.941236,36.7092382 133.156567,36.3593429 C133.371899,36.0094475 133.371899,35.568126 133.156567,35.2182307 C132.941236,34.8683353 132.547257,34.6694753 132.137868,34.7040441 L122.680147,34.7040441 C122.270758,34.6694753 121.876779,34.8683353 121.661447,35.2182307 C121.446116,35.568126 121.446116,36.0094475 121.661447,36.3593429 C121.876779,36.7092382 122.270758,36.9080982 122.680147,36.8735294 L125.420956,36.8735294 L126.802941,39.4676471 L123.398162,44.9878676 C118.158898,42.2053308 111.713477,43.2003093 107.55719,47.4332357 C103.400902,51.6661622 102.523843,58.1286852 105.401633,63.3162393 C108.279423,68.5037933 114.226526,71.1806193 120.017885,69.8950997 C125.809243,68.6095801 130.065262,63.6679463 130.477941,57.75 L133.342279,57.75 C133.711818,58.7901984 134.497932,59.6294662 135.511765,60.0661765 L135.249265,62.0580882 C135.202548,62.3438211 135.27158,62.6363932 135.441095,62.8711064 C135.61061,63.1058197 135.866642,63.2633362 136.152574,63.3088235 L136.299265,63.3088235 C136.842972,63.3094525 137.302522,62.906107 137.372426,62.3669118 L137.634926,60.3518382 C138.986967,60.1460205 140.137163,59.2572426 140.677409,58.0008559 C141.217656,56.7444692 141.071503,55.2982612 140.290809,54.1753676 L150.327574,41.6988971 L152.095588,45.2735294 C146.34042,48.6867341 143.998922,55.8317637 146.617698,61.9891939 C149.236473,68.1466241 156.007315,71.4161453 162.457955,69.6381782 C168.908596,67.8602112 173.048236,61.5834731 172.142566,54.9538656 C171.236897,48.3242582 165.565425,43.3878145 158.874265,43.4051471 Z M127.991912,41.6988971 L134.284191,53.5731618 C133.724382,54.1184793 133.337687,54.8166779 133.172426,55.5805147 L130.477941,55.5805147 C130.131232,51.8514608 128.238359,48.4381297 125.258824,46.1691176 L127.991912,41.6988971 Z M128.269853,55.5959559 L119.406618,55.5959559 L124.077574,48.0297794 C126.42202,49.8915191 127.925698,52.6125921 128.254412,55.5882353 L128.269853,55.5959559 Z M117.105882,68.0183838 C112.453329,68.0207166 108.282199,65.1509386 106.621352,60.8049243 C104.960505,56.45891 106.154682,51.538758 109.623028,48.4376574 C113.091375,45.3365567 118.113969,44.6982003 122.247794,46.8330882 L116.534559,56.0977941 C116.326176,56.4324279 116.3165,56.8539712 116.509309,57.1978139 C116.702118,57.5416567 117.066831,57.7532622 117.461029,57.75 L128.269853,57.75 C127.777,63.5512314 122.928007,68.0112315 117.105882,68.0183838 L117.105882,68.0183838 Z M137.048162,58.2286765 C136.050394,58.2286765 135.241544,57.4198262 135.241544,56.4220588 C135.241544,55.4242914 136.050394,54.6154412 137.048162,54.6154412 C138.045929,54.6154412 138.854779,55.4242914 138.854779,56.4220588 C138.85055,57.4180691 138.044172,58.2244471 137.048162,58.2286765 L137.048162,58.2286765 Z M138.638603,52.7161765 L138.870221,50.9404412 C138.948639,50.5428304 138.799691,50.134573 138.48365,49.8808764 C138.167609,49.6271798 137.736801,49.5700476 137.365559,49.7325991 C136.994317,49.8951506 136.744105,50.2504729 136.716176,50.6547794 L136.476838,52.5 C136.379209,52.4919775 136.281085,52.4919775 136.183456,52.5 L129.906618,40.6566176 L148.289338,40.6566176 L138.638603,52.7161765 Z M158.874265,68.0183843 C153.842785,68.0213053 149.425706,64.671566 148.07127,59.8258151 C146.716834,54.9800642 148.756874,49.8254957 153.060662,47.2191176 L157.924632,57.0551471 C158.105179,57.4281149 158.483057,57.6650383 158.897426,57.6650735 C159.06384,57.6643834 159.227778,57.624721 159.376103,57.5492647 C159.634735,57.4229835 159.832321,57.1987675 159.925073,56.9263078 C160.017826,56.6538482 159.998083,56.3556477 159.870221,56.0977941 L155.013971,46.2772059 C159.216803,44.7433632 163.929235,45.8553698 167.002992,49.1062909 C170.07675,52.357212 170.923215,57.1245039 169.156506,61.2348827 C167.389798,65.3452615 163.348237,68.0115993 158.874265,68.0183843 L158.874265,68.0183843 Z" id="Shape" fill="#524FA2"></path><path d="M76.0246324,28.3345588 C74.6170472,28.3357308 73.2218436,28.597495 71.9095588,29.1066176 L69.8558824,24.9606618 L69.8558824,21.3860294 L74.4110294,21.3860294 C74.7420255,21.3860294 75.0478785,21.2094451 75.2133765,20.9227941 C75.3788746,20.6361431 75.3788746,20.2829745 75.2133765,19.9963235 C75.0478785,19.7096725 74.7420255,19.5330882 74.4110294,19.5330882 L68.9371324,19.5330882 C68.4254568,19.5330882 68.0106618,19.9478832 68.0106618,20.4595588 L68.0106618,24.1731618 L50.3691176,24.1731618 L49.5970588,22.7680147 L53.2720588,22.7680147 C53.6218263,22.8000441 53.9596307,22.6315336 54.1444223,22.3328445 C54.329214,22.0341553 54.329214,21.6566535 54.1444223,21.3579644 C53.9596307,21.0592752 53.6218263,20.8907647 53.2720588,20.9227941 L45.1886029,20.9227941 C44.8388355,20.8907647 44.5010311,21.0592752 44.3162394,21.3579644 C44.1314478,21.6566535 44.1314478,22.0341553 44.3162394,22.3328445 C44.5010311,22.6315336 44.8388355,22.8000441 45.1886029,22.7680147 L47.5047794,22.7680147 L48.6783088,24.9838235 L45.7830882,29.6779412 C41.3247624,27.2970165 35.8313683,28.1325692 32.2825697,31.7313884 C28.7337711,35.3302077 27.9751844,40.8347579 30.4182735,45.2593242 C32.8613627,49.6838905 37.9239823,51.9741763 42.8601245,50.8879112 C47.7962667,49.801646 51.4297352,45.5976677 51.7897059,40.55625 L54.2216912,40.55625 C54.5375349,41.4459373 55.2086063,42.1645429 56.0746324,42.5404412 L55.8507353,44.2389706 C55.7816573,44.7369836 56.1257153,45.1980214 56.6227941,45.2735294 L56.7463235,45.2735294 C57.1974744,45.2723201 57.5821625,44.9463132 57.6573529,44.5014706 L57.8889706,42.7875 C59.0754729,42.6479173 60.0990991,41.8899078 60.5787009,40.7957171 C61.0583026,39.7015264 60.9220163,38.4351082 60.2205882,37.4680147 L68.7132353,26.8444853 L70.2573529,29.9327206 C65.3529994,32.8396572 63.3564758,38.9270245 65.5865569,44.1739 C67.8166381,49.4207755 73.5850512,52.2078092 79.0815544,50.6940664 C84.5780575,49.1803235 88.1062579,43.8329925 87.3356537,38.1841755 C86.5650495,32.5353585 81.7334733,28.3284572 76.0323529,28.3422794 L76.0246324,28.3345588 Z M49.7051471,26.8830882 L55.0632353,36.9970588 C54.5883229,37.4619873 54.2584529,38.0546804 54.1136029,38.7033088 L51.7974265,38.7033088 C51.5038802,35.5285856 49.8937886,32.6220203 47.3580882,30.6893382 L49.7051471,26.8830882 Z M49.9444853,38.7033088 L42.4014706,38.7033088 L46.3852941,32.2643382 C48.3839752,33.8492252 49.6655853,36.1677995 49.9444853,38.7033088 L49.9444853,38.7033088 Z M40.4481618,49.3037037 C36.4798904,49.3131108 32.9185433,46.8695781 31.4994305,43.1637198 C30.0803178,39.4578616 31.0986531,35.260596 34.05824,32.6170923 C37.017827,29.9735887 41.3029918,29.4337669 44.8257353,31.2606618 L39.9540441,39.1433824 C39.7873642,39.4352313 39.7873642,39.7934452 39.9540441,40.0852941 C40.1131971,40.3646872 40.4048496,40.5425953 40.7261029,40.55625 L49.9599265,40.55625 C49.5427995,45.5000965 45.4095736,49.3011882 40.4481618,49.3037037 L40.4481618,49.3037037 Z M57.4334559,40.9654605 C56.5806633,40.9654605 55.8893382,40.2741162 55.8893382,39.4213235 C55.8893382,38.5685309 56.5806633,37.8772059 57.4334559,37.8772059 C58.2862485,37.8772059 58.9775735,38.5685309 58.9775735,39.4213235 C58.9775735,39.8321902 58.8138359,40.2261171 58.5225857,40.5159183 C58.2313355,40.8057195 57.8365968,40.9674955 57.4257353,40.9654605 L57.4334559,40.9654605 Z M58.7845588,36.2867647 L58.9852941,34.7426471 C59.0266686,34.411651 58.888316,34.083725 58.6223522,33.8823956 C58.3563885,33.6810662 58.0032199,33.6369201 57.6958816,33.7665868 C57.3885434,33.8962534 57.1737274,34.1800334 57.1323529,34.5110294 L56.9316176,36.0551471 C56.8466912,36.0551471 56.7617647,36.0551471 56.6768382,36.09375 L51.3496324,26.0261029 L67.0069853,26.0261029 L58.7845588,36.2867647 Z M76.0246324,49.3036765 C71.7120242,49.3366129 67.9124539,46.4751782 66.7529617,42.321234 C65.5934695,38.1672899 67.3617966,33.7516856 71.0680147,31.5463235 L75.2139706,39.9231618 C75.3661939,40.2407813 75.6878648,40.4422014 76.0400735,40.4404412 C76.181643,40.4401935 76.3213955,40.4085514 76.4492647,40.3477941 C76.6709926,40.2399499 76.8400682,40.0475096 76.9184739,39.8137444 C76.9968796,39.5799792 76.9780347,39.3245097 76.8661765,39.1047794 L72.7356618,30.7819853 C76.3142803,29.4853146 80.3211976,30.437435 82.934003,33.2053066 C85.5468083,35.9731783 86.2665886,40.0282783 84.765976,43.5262816 C83.2653635,47.024285 79.8308989,49.2972506 76.0246324,49.3113971 L76.0246324,49.3036765 Z" id="Shape" fill="#524FA2"></path><path d="M201.422426,16.66875 C200.391952,16.6702618 199.370804,16.864018 198.411397,17.2400735 L196.867279,14.1981618 L196.867279,11.5808824 L200.202574,11.5808824 C200.577802,11.5808824 200.881985,11.2766993 200.881985,10.9014706 C200.881985,10.5262418 200.577802,10.2220588 200.202574,10.2220588 L196.187868,10.2220588 C195.812639,10.2220588 195.508456,10.5262418 195.508456,10.9014706 L195.508456,13.6345588 L182.607353,13.6345588 L182.059191,12.6 L184.722794,12.6 C185.098023,12.6 185.402206,12.295817 185.402206,11.9205882 C185.402206,11.5453595 185.098023,11.2411765 184.722794,11.2411765 L178.808824,11.2411765 C178.433595,11.2411765 178.129412,11.5453595 178.129412,11.9205882 C178.129412,12.295817 178.433595,12.6 178.808824,12.6 L180.522794,12.6 L181.3875,14.2213235 L179.256618,17.6647059 C175.986546,15.9202181 171.95855,16.5342984 169.356855,19.173955 C166.755159,21.8136116 166.199487,25.8500798 167.991157,29.0945403 C169.782827,32.3390008 173.495065,34.018625 177.114869,33.2226181 C180.734672,32.4266113 183.399807,29.3445818 183.665074,25.6477941 L185.448529,25.6477941 C185.693745,26.2977384 186.196678,26.8174361 186.838235,27.0838235 L186.676103,28.3268382 C186.625761,28.7018495 186.888069,29.0469927 187.262868,29.0988971 L187.347794,29.0988971 C187.689274,29.0976946 187.976802,28.8432156 188.019485,28.5044118 L188.189338,27.2459559 C189.403115,27.0663034 190.302713,26.0255275 190.304779,24.7985294 C190.304936,24.2830944 190.142868,23.7806831 189.841544,23.3625 L196.102941,15.5724265 L197.214706,17.8345588 C193.613709,19.9670533 192.146422,24.4351003 193.782075,28.2872879 C195.417728,32.1394754 199.651482,34.1868392 203.686691,33.0769732 C207.721899,31.9671071 210.313108,28.0425675 209.74867,23.8957472 C209.184231,19.7489269 205.638357,16.6597276 201.453309,16.66875 L201.422426,16.66875 Z M182.120956,15.5955882 L186.066176,23.0150735 C185.719608,23.3599535 185.478566,23.7965064 185.371324,24.2735294 L183.672794,24.2735294 C183.456158,21.9435066 182.274785,19.8103161 180.414706,18.3904412 L182.120956,15.5955882 Z M182.298529,24.2735294 L176.801471,24.2735294 L179.719853,19.5485294 C181.174608,20.7170586 182.102828,22.4178695 182.298529,24.2735294 L182.298529,24.2735294 Z M175.35,32.0404412 C172.440366,32.0440399 169.830962,30.2499275 168.792618,27.5318721 C167.754274,24.8138166 168.50286,21.7368945 170.6738,19.7996273 C172.84474,17.8623602 175.9867,17.4675006 178.569485,18.8073529 L174.994853,24.5977941 C174.871872,24.8075691 174.871872,25.0674309 174.994853,25.2772059 C175.114516,25.4940872 175.341649,25.6297766 175.589338,25.6323529 L182.344853,25.6323529 C182.038412,29.2735917 178.980864,32.0654129 175.326838,32.0404412 L175.35,32.0404412 Z M187.811029,25.9257353 C187.350604,25.9288569 186.93392,25.6534918 186.756278,25.2287044 C186.578636,24.803917 186.675243,24.3138979 187.000821,23.9883207 C187.326398,23.6627435 187.816417,23.5661358 188.241204,23.7437779 C188.665992,23.92142 188.941357,24.3381043 188.938235,24.7985294 C188.938299,25.1015396 188.816366,25.3918156 188.599938,25.6038863 C188.38351,25.815957 188.090814,25.9319615 187.787868,25.9257353 L187.811029,25.9257353 Z M188.806985,22.4823529 L188.945956,21.3705882 C188.972379,21.1912921 188.926073,21.0088702 188.817333,20.8638841 C188.708594,20.7188979 188.546435,20.6233658 188.366912,20.5985294 C187.9919,20.548187 187.646757,20.8104958 187.594853,21.1852941 L187.448162,22.3356618 L187.262868,22.3356618 L183.340809,14.9316176 L194.821324,14.9316176 L188.806985,22.4823529 Z M201.422426,32.0404412 C198.277662,32.0454909 195.51523,29.9534997 194.667706,26.9250883 C193.820183,23.8966769 195.095462,20.6747023 197.786029,19.0466912 L200.827941,25.2231618 C200.941188,25.4564204 201.178581,25.6036645 201.437868,25.6014706 C201.542118,25.6006868 201.644919,25.5769636 201.738971,25.5319853 C202.072757,25.363017 202.210028,24.9580666 202.047794,24.6209559 L199.013603,18.4908088 C199.784641,18.205312 200.60023,18.0589243 201.422426,18.0584559 C203.98105,17.9735099 206.382522,19.2900388 207.686985,21.4927966 C208.991449,23.6955545 208.991449,26.4342249 207.686985,28.6369828 C206.382522,30.8397406 203.98105,32.1562695 201.422426,32.0713235 L201.422426,32.0404412 Z" id="Shape" fill="#524FA2"></path><path d="M19.0235294,7.72058824 C17.2909582,7.22402269 15.4273491,7.52225558 13.9362646,8.53470191 C12.4451802,9.54714824 11.4805192,11.1693107 11.3029412,12.9628676 C11.2643429,13.3505121 11.2643429,13.741032 11.3029412,14.1286765 C11.5804084,17.0233327 13.8675362,19.3169304 16.7613971,19.6025735 C17.149387,19.633441 17.5392159,19.633441 17.9272059,19.6025735 L30.9209559,19.6025735 L30.9209559,6.40808824 L30.9209559,5.63602941 C30.8191349,4.17746685 30.1908136,2.80558633 29.1529412,1.77573529 C28.1122875,0.720650426 26.7179279,0.0881007401 25.2386029,0 L24.4665441,0 C22.6313845,0.112026951 20.9459675,1.05001747 19.8835719,2.55057623 C18.8211763,4.051135 18.4963723,5.95243956 19.0003676,7.72058824 L19.0235294,7.72058824 Z" id="Path" fill="#E2E4EA"></path></g></g></g></svg>