<svg xmlns="http://www.w3.org/2000/svg" xmlns:xlink="http://www.w3.org/1999/xlink" width="175px" height="93px" viewBox="0 0 175 93"><title>10E76F76-3868-4925-9D69-4873D1886B3C</title><g id="Public---Desktop" stroke="none" stroke-width="1" fill="none" fill-rule="evenodd"><g id="Cyclis.General-redesign" transform="translate(-1053.000000, -835.000000)" fill-rule="nonzero"><g id="less-CO2_1" transform="translate(1053.000000, 835.000000)"><path d="M154.676237,49.5387303 L152.828235,47.6534653 C152.622036,47.4417023 152.341542,47.3226161 152.048957,47.3226161 C151.756371,47.3226161 151.475877,47.4417023 151.269678,47.6534653 L148.583024,50.3942924 L148.583024,39.1281305 C148.583024,38.5050812 148.087926,38 147.477191,38 L144.872176,38 C144.578891,38 144.297618,38.1188563 144.090234,38.3304218 C143.88285,38.5419873 143.766343,38.8289317 143.766343,39.1281305 L143.766343,43.3605125 L140.730869,40.2638323 C140.524387,40.0497299 140.242295,39.9291536 139.94788,39.9291536 C139.653464,39.9291536 139.371373,40.0497299 139.164891,40.2638323 L137.32431,42.1415259 C137.116732,42.3518822 137,42.6380321 137,42.9365172 C137,43.2350023 137.116732,43.5211522 137.32431,43.7315084 L142.029666,48.5317414 L142.029666,75.8718695 C142.029652,76.4919739 142.520243,76.9958382 143.128077,77 L147.477191,77 C148.087926,77 148.583024,76.4949188 148.583024,75.8718695 L148.583024,57.3447874 L154.668816,51.1287129 C154.87923,50.9203913 154.998591,50.6344339 155,50.3353124 C155.001384,50.0361909 154.884698,49.7490868 154.676237,49.5387303 Z" id="Path" fill="#E2E4EA"></path><path d="M169.64433,26.2181085 C170.254646,22.6885138 169.244121,19.0751792 166.88203,16.3409466 C164.519939,13.6067139 161.046249,12.0293565 157.38659,12.0291912 C156.860961,12.0275819 156.335794,12.059843 155.814501,12.125765 C153.201647,8.93192888 149.263168,7.05139208 145.081591,7.00103735 C140.900014,6.95068262 136.9154,8.73580918 134.222955,11.8657586 C133.719622,11.7984401 133.212036,11.7661677 132.704029,11.7691848 C129.05379,11.7583033 125.584018,13.3209179 123.219086,16.0407362 C120.854154,18.7605545 119.834256,22.3613395 120.4311,25.8838146 C116.97345,28.1870943 114.932843,32.0377083 115.001688,36.1290834 C115.070533,40.2204585 117.239588,44.0032974 120.772858,46.194024 C121.775766,50.1693754 124.756572,53.3841633 128.703765,54.7474779 C132.650959,56.1107926 137.034553,55.4395827 140.367015,52.9616175 L140.367015,48.0957846 L135.962127,43.7276781 C135.041235,42.8185108 135.041235,41.3533369 135.962127,40.4441695 L137.853191,38.6018389 C138.29549,38.1640344 138.898556,37.9176395 139.527807,37.9176395 C140.157059,37.9176395 140.760124,38.1640344 141.202424,38.6018389 L142.189727,39.560148 L142.189727,38.3492613 C142.193896,37.066782 143.255731,36.0281396 144.566847,36.0240618 L147.232564,36.0240618 C148.545411,36.0240618 149.609684,37.0650891 149.609684,38.3492613 L149.609684,46.461459 L150.232445,45.8597301 C150.676048,45.4214828 151.280368,45.1749105 151.910859,45.1749105 C152.541349,45.1749105 153.145669,45.4214828 153.589273,45.8597301 L155.472742,47.7020607 C156.397785,48.6095535 156.397785,50.0780765 155.472742,50.9855693 L151.242531,55.1308132 C152.808048,55.708472 154.467871,56.00298 156.14107,56 C162.309624,55.9965024 167.74697,52.039259 169.522816,46.2608827 C172.920415,44.0177673 174.969295,40.2806382 175,36.2711997 C175.030021,32.2617611 173.037963,28.4953529 169.674708,26.203251 L169.64433,26.2181085 Z" id="Path" fill="#E2E4EA"></path><path d="M111.693589,42.5765871 L109.843518,40.6913221 C109.637089,40.479559 109.356281,40.3604728 109.063368,40.3604728 C108.770455,40.3604728 108.489647,40.479559 108.283218,40.6913221 L105.593558,43.4321491 L105.593558,32.1357018 C105.593571,31.511416 105.099106,31.0041619 104.486488,31 L101.885987,31 C101.273369,31.0041619 100.778904,31.511416 100.778917,32.1357018 L100.778917,36.3605125 L97.7326168,33.2638323 C97.2983569,32.8259968 96.5991465,32.8259968 96.1648866,33.2638323 L94.3222463,35.1415259 C93.8925846,35.584047 93.8925846,36.2965587 94.3222463,36.7390798 L99.032867,41.5317414 L99.032867,68.8718695 C99.0328533,69.4919739 99.5239927,69.9958382 100.132507,70 L104.486488,70 C105.097906,70 105.593558,69.4949188 105.593558,68.8718695 L105.593558,50.3447874 L111.693589,44.1287129 C112.102137,43.6950886 112.102137,43.0102113 111.693589,42.5765871 Z" id="Path" fill="#E2E4EA"></path><path d="M119.385135,23.3856064 C119.385135,23.8461884 119.385135,24.3141992 119.460304,24.7673525 C116.023157,27.373802 114.056822,31.4492722 114.171341,35.7293763 C114.285859,40.0094804 116.467381,43.9765578 120.039104,46.39985 C120.120937,46.7043112 120.21879,47.0043451 120.332263,47.2987278 C116.801082,49.2244901 112.595254,49.5310732 108.816384,48.1381757 L113.003293,43.9855087 C113.918867,43.0780172 113.918867,41.6094962 113.003293,40.7020047 L111.139104,38.8596766 C110.700041,38.4214299 110.101907,38.1748579 109.477871,38.1748579 C108.853835,38.1748579 108.2557,38.4214299 107.816638,38.8596766 L107.200253,39.4614047 L107.200253,31.3566469 C107.200253,30.0724764 106.146874,29.0314505 104.847465,29.0314505 L102.209036,29.0314505 C100.909628,29.0314505 99.8562489,30.0724764 99.8562489,31.3566469 L99.8562489,32.5675319 L98.8790529,31.6017954 C98.4399902,31.1635487 97.841856,30.9169767 97.2178197,30.9169767 C96.5937835,30.9169767 95.9956492,31.1635487 95.5565865,31.6017954 L93.6923973,33.429266 C93.2489503,33.8631798 92.9994525,34.4542998 92.9994525,35.071018 C92.9994525,35.6877362 93.2489503,36.2788563 93.6923973,36.7127701 L98.0972961,41.066013 L98.0972961,45.9466967 C95.9623499,47.5638074 93.3454424,48.4363299 90.6555728,48.4278966 C84.9928467,48.4300417 80.059724,44.6126114 78.7037142,39.1791125 C75.2108225,36.9847132 73.0682,33.2019343 73.0015984,29.1120832 C72.9349968,25.0222321 74.9533395,21.1732734 78.3729709,18.8689311 C78.2778398,18.2295555 78.2351052,17.5836322 78.2451838,16.9374581 C78.2451635,10.2286901 83.7394311,4.7855611 90.5277856,4.76917827 C91.0305931,4.76616116 91.5329827,4.79843354 92.0311641,4.86575192 C94.6960473,1.73580679 98.6398734,-0.0493173164 102.778646,0.00103734502 C106.917418,0.0513920064 110.815581,1.93192622 113.401689,5.1257579 C113.91515,5.06007576 114.432425,5.02781501 114.950168,5.02918425 C119.658335,5.03439109 123.949718,7.69731391 126,11.8859134 C121.896598,14.2973894 119.382818,18.6675006 119.385135,23.3856064 L119.385135,23.3856064 Z" id="Path" fill="#E2E4EA"></path><path d="M38.6864072,49.5387303 L36.8443218,47.6534653 C36.4101927,47.2156299 35.7111929,47.2156299 35.2770637,47.6534653 L32.595641,50.3942924 L32.595641,39.1281305 C32.595641,38.8289317 32.4790387,38.5419873 32.2714853,38.3304218 C32.0639319,38.1188563 31.7824291,38 31.4889042,38 L28.8817592,38 C28.5882344,38 28.3067315,38.1188563 28.0991781,38.3304218 C27.8916247,38.5419873 27.7750224,38.8289317 27.7750224,39.1281305 L27.7750224,43.3605125 L24.7296393,40.2638323 C24.5242685,40.0501748 24.2431721,39.9297737 23.9497241,39.9297737 C23.6562762,39.9297737 23.3751798,40.0501748 23.1698089,40.2638323 L21.3277236,42.1415259 C21.1181179,42.3508666 21,42.6373967 21,42.9365172 C21,43.2356376 21.1181179,43.5221677 21.3277236,43.7315084 L26.0146424,48.5317414 L26.0146424,75.8718695 C26.0146287,76.4919739 26.5056203,76.9958382 27.1139515,77 L31.466621,77 C31.7601458,77 32.0416486,76.8811437 32.249202,76.6695782 C32.4567554,76.4580127 32.5733577,76.1710683 32.5733577,75.8718695 L32.5733577,57.3447874 L38.6641239,51.1287129 C38.8748468,50.9213973 38.9957044,50.6369432 39,50.3384487 C39.004071,50.0399542 38.8912343,49.7520971 38.6864072,49.5387303 Z" id="Path" fill="#E2E4EA"></path><path d="M54.6777682,26.2181089 C55.2886234,22.6872335 54.2766117,19.0726277 51.9115814,16.3381088 C49.546551,13.6035898 46.0689482,12.027169 42.4060591,12.0291913 C41.8826892,12.0278221 41.359793,12.0600828 40.8407513,12.1257651 C38.2265391,8.93192892 34.2860131,7.05139208 30.1022631,7.00103735 C25.918513,6.95068261 21.9318276,8.73580922 19.237984,11.8657587 C18.7343886,11.7984403 18.2265393,11.7661678 17.7182677,11.7691849 C14.0701731,11.7715465 10.6065732,13.3375625 8.24219268,16.0536535 C5.87781216,18.7697446 4.85042527,22.3627666 5.43136133,25.883815 C1.97456729,28.1881605 -0.0657095811,32.0371246 0.00161581228,36.1269815 C0.0689412057,40.2168383 2.2348485,43.9996225 5.76569891,46.1940249 C6.76912838,50.1693764 9.75148342,53.3841643 13.7007284,54.747479 C17.6499733,56.1107937 22.0358459,55.4395838 25.3700393,52.9616185 L25.3700393,48.0957855 L20.9172705,43.7425365 C20.4690044,43.3086221 20.2167952,42.7175012 20.2167952,42.1007821 C20.2167952,41.484063 20.4690044,40.8929422 20.9172705,40.4590278 L22.8245144,38.6018396 C23.2683486,38.1635923 23.8729831,37.91702 24.503801,37.91702 C25.1346189,37.91702 25.7392533,38.1635923 26.1830875,38.6018396 L27.1709031,39.5601487 L27.1709031,38.349262 C27.1709031,37.0650898 28.2357293,36.0240624 29.5492591,36.0240624 L32.2163612,36.0240624 C33.529891,36.0240624 34.5947172,37.0650898 34.5947172,38.349262 L34.5947172,46.4614599 L35.2178009,45.859731 C35.6616351,45.4214837 36.2662695,45.1749113 36.8970874,45.1749113 C37.5279054,45.1749113 38.1325398,45.4214837 38.576374,45.859731 L40.4608222,47.7020616 C41.3863459,48.6095545 41.3863459,50.0780775 40.4608222,50.9855703 L36.2284123,55.1308143 C37.7921283,55.7083861 39.4503083,56.0029063 41.1218988,56 C47.2984546,56.0006223 52.7452585,52.0430467 54.5257966,46.2608836 C57.92195,44.0155852 59.9692894,40.2792172 60,36.2711581 C60.0300255,32.263099 58.0395267,28.4974896 54.6777682,26.2032514 L54.6777682,26.2181089 Z" id="Path" fill="#E2E4EA"></path><path d="M152.409779,68.6924909 C151.350018,68.6930746 150.299629,68.892648 149.312314,69.2810076 L147.763581,66.1271618 L147.763581,63.410931 L151.197727,63.410931 C151.556179,63.3734973 151.828574,63.0688824 151.828574,62.7054655 C151.828574,62.3420486 151.556179,62.0374337 151.197727,62 L147.067774,62 C146.68349,62 146.371966,62.3141586 146.371966,62.701693 L146.371966,65.5311001 L133.084289,65.5311001 L132.493227,64.467243 L135.224084,64.467243 C135.582536,64.4298093 135.854931,64.1251944 135.854931,63.7617775 C135.854931,63.3983606 135.582536,63.0937457 135.224084,63.056312 L129.148862,63.056312 C128.79041,63.0937457 128.518015,63.3983606 128.518015,63.7617775 C128.518015,64.1251944 128.79041,64.4298093 129.148862,64.467243 L130.914567,64.467243 L131.797419,66.142252 L129.642661,69.6808972 C126.286084,67.8753417 122.151898,68.5092894 119.479213,71.239389 C116.806527,73.9694885 116.230993,78.1464345 118.064323,81.5079583 C119.897654,84.8694822 123.703825,86.6161056 127.421383,85.8018428 C131.13894,84.98758 133.883729,81.8060888 134.16915,77.9804913 L136.002191,77.9804913 C136.239833,78.6580292 136.746895,79.2049291 137.401288,79.4895084 L137.229206,80.7797181 C137.197888,81.1517574 137.460955,81.4833723 137.82775,81.5342266 L137.917532,81.5342266 C138.269321,81.5371908 138.567958,81.2748872 138.613339,80.9230747 L138.785421,79.6177749 C139.659344,79.4885547 140.403668,78.9101463 140.750313,78.0908723 C141.096958,77.2715983 140.995996,76.3294625 140.483789,75.6037894 L146.910656,67.5230027 L148.055371,69.8695243 C144.359926,72.0770444 142.854335,76.701388 144.53299,80.6883301 C146.211646,84.6752722 150.556536,86.7944905 154.698005,85.6463119 C158.839474,84.4981332 161.499514,80.4368718 160.921258,76.1448554 C160.343002,71.8528391 156.704892,68.6545325 152.409779,68.6623106 L152.409779,68.6924909 Z M132.583008,67.5833634 L136.62318,75.2718056 C136.247719,75.6167794 135.986524,76.0698362 135.875,76.5695603 L134.131741,76.5695603 C133.911081,74.1555705 132.694825,71.9461485 130.779894,70.4806762 L132.583008,67.5833634 Z M132.762572,76.5695603 L127.083885,76.5695603 L130.076605,71.6727998 C131.582363,72.8796095 132.549018,74.6419102 132.762572,76.5695603 L132.762572,76.5695603 Z M125.602489,84.6202027 C122.608779,84.6296419 119.921168,82.7712248 118.850987,79.9516679 C117.780806,77.1321109 118.551054,73.938944 120.785916,71.930166 C123.020777,69.921388 126.254559,69.5155815 128.909444,70.9107461 L125.235881,76.9015441 C125.102231,77.1349898 125.102231,77.4226069 125.235881,77.6560526 C125.368591,77.8704097 125.598902,78.0035335 125.849388,78.0106717 L132.792499,78.0106717 C132.455299,81.7593898 129.335019,84.6277409 125.602489,84.6202027 L125.602489,84.6202027 Z M138.403849,78.2822947 C137.763376,78.2822947 137.24417,77.758697 137.24417,77.1128065 C137.24417,76.4669159 137.763376,75.9433182 138.403849,75.9433182 C139.044322,75.9433182 139.563528,76.4669159 139.563528,77.1128065 C139.563528,77.4229741 139.441348,77.720438 139.223866,77.9397596 C139.006384,78.1590812 138.711415,78.2822947 138.403849,78.2822947 L138.403849,78.2822947 Z M139.421374,74.7210143 L139.57101,73.5666162 C139.603086,73.3172733 139.500818,73.0696139 139.30273,72.9169289 C139.104641,72.7642439 138.840827,72.7297299 138.610663,72.8263878 C138.380499,72.9230458 138.218953,73.1361912 138.186877,73.3855342 L138.037241,74.5776577 C137.97496,74.5735167 137.912476,74.5735167 137.850196,74.5776577 L133.817505,66.9118507 L145.616304,66.9118507 L139.421374,74.7210143 Z M152.409779,84.620225 C149.175513,84.6331838 146.330686,82.4668104 145.457847,79.326179 C144.585008,76.1855477 145.899007,72.8437247 148.668879,71.1597339 L151.78879,77.5277862 C151.906385,77.7692431 152.150514,77.9216484 152.417261,77.9201306 C152.524139,77.921064 152.629564,77.895133 152.724015,77.8446798 C152.890053,77.762008 153.016566,77.6160022 153.075545,77.438987 C153.134523,77.2619718 153.121101,77.0685502 153.03825,76.9015441 L149.925821,70.548582 C150.718164,70.2507865 151.556717,70.0974972 152.402297,70.0958769 C156.2891,70.222236 159.375124,73.4363059 159.375124,77.3580218 C159.375124,81.2797377 156.2891,84.4938075 152.402297,84.620225 L152.409779,84.620225 Z" id="Shape" fill="#524FA2"></path><path d="M62.4338966,75.6920103 C61.3743463,75.6925939 60.3241662,75.892153 59.3370479,76.2804847 L57.7961039,73.1268654 L57.7961039,70.4032851 L61.2220862,70.4032851 C61.6062936,70.4032851 61.9177552,70.0891491 61.9177552,69.7016426 C61.9177552,69.3141361 61.6062936,69 61.2220862,69 L57.100435,69 C56.7162276,69 56.404766,69.3141361 56.404766,69.7016426 L56.404766,72.5308465 L43.1122536,72.5308465 L42.5512303,71.4595213 L45.2815438,71.4595213 C45.6657511,71.4595213 45.9772127,71.1453852 45.9772127,70.7578787 C45.9772127,70.3703722 45.6657511,70.0562361 45.2815438,70.0562361 L39.2150117,70.0562361 C38.8308043,70.0562361 38.5193428,70.3703722 38.5193428,70.7578787 C38.5193428,71.1453852 38.8308043,71.4595213 39.2150117,71.4595213 L40.9654044,71.4595213 L41.8555614,73.1419545 L39.6787909,76.7029792 C36.3271281,74.8776224 32.1840625,75.4949768 29.4989322,78.2198706 C26.813802,80.9447645 26.2271945,85.1271239 28.0575887,88.4962776 C29.8879828,91.8654313 33.6987042,93.6176053 37.4208498,92.8015158 C41.1429955,91.9854262 43.8885787,88.7957663 44.1669775,84.9642546 L46.0071339,84.9642546 C46.2414259,85.6412515 46.7459753,86.1884363 47.3984718,86.4731633 L47.2339049,87.7632803 C47.1986228,88.1364985 47.4635697,88.4705259 47.8323298,88.5177347 L47.9220935,88.5177347 C48.2709669,88.5168925 48.5652671,88.2555554 48.6102821,87.9066266 L48.7823293,86.6014206 C49.6610342,86.4776398 50.4111129,85.8983762 50.7587623,85.07508 C51.1064116,84.2517838 51.0007548,83.3049405 50.4803598,82.5801788 L56.9059469,74.5075169 L58.0579147,76.85387 C54.3626017,79.0616114 52.8575303,83.6867074 54.5370069,87.6736475 C56.2164835,91.6605876 60.5620615,93.7786222 64.7028903,92.6284987 C68.8437191,91.4783753 71.5015444,87.4151315 70.9205078,83.1230975 C70.3394712,78.8310635 66.698936,75.6351699 62.4039754,75.646743 L62.4338966,75.6920103 Z M42.6185531,74.5829624 L46.6504407,82.2708525 C46.2772962,82.6176219 46.0165882,83.0698901 45.9024096,83.568514 L44.1894184,83.568514 C43.9740229,81.1486418 42.7607878,78.9312839 40.8457194,77.4574335 L42.6185531,74.5829624 Z M42.7906003,83.568514 L37.1130443,83.568514 L40.1051687,78.6721051 C41.6158263,79.8743827 42.5835865,81.6389222 42.7906003,83.568514 L42.7906003,83.568514 Z M35.6394231,91.6185422 C31.7533939,91.4921921 28.6679844,88.2783531 28.6679844,84.3569188 C28.6679844,80.4354846 31.7533939,77.2216455 35.6394231,77.0952886 C36.7881986,77.0936881 37.9202001,77.3732934 38.9382402,77.9101062 L35.2728878,83.9004739 C35.1399152,84.1168204 35.1335449,84.3888336 35.2562417,84.6112709 C35.3789384,84.8337083 35.6114558,84.9716779 35.8638324,84.9717991 L42.8055609,84.9717991 C42.4908478,88.7282195 39.3771342,91.6162542 35.6394231,91.6185422 L35.6394231,91.6185422 Z M48.4307547,85.2811254 C47.7904091,85.2811254 47.2713065,84.7575653 47.2713065,84.1117211 C47.2713065,83.465877 47.7904091,82.9423169 48.4307547,82.9423169 C49.0711002,82.9423169 49.5902028,83.465877 49.5902028,84.1117211 C49.5902557,84.7517182 49.0802107,85.2728674 48.4457153,85.2811254 L48.4307547,85.2811254 Z M49.4555572,81.7125562 L49.6051635,80.5657856 C49.630796,80.1852076 49.3707436,79.8452079 48.9992583,79.7736085 C48.6304129,79.7420276 48.301645,80.0073005 48.2512272,80.377172 L48.0941407,81.5692099 L47.9071329,81.5692099 L43.8528044,73.9341316 L55.6417743,73.9341316 L49.4555572,81.7125562 Z M62.4338966,91.6185442 C59.2068767,91.6193545 56.3739153,89.4533378 55.5030389,86.3193687 C54.6321624,83.1853997 55.9363497,79.8499115 58.6937412,78.1590761 L61.8205111,84.526671 C61.9382315,84.764448 62.1778852,84.9158818 62.4413769,84.9189873 C62.5500961,84.9156308 62.6569962,84.8899598 62.75555,84.8435419 C62.9215558,84.760876 63.0480437,84.6148807 63.1070101,84.4378783 C63.1659766,84.2608758 63.1525573,84.067468 63.069723,83.9004739 L59.9504334,77.5479681 C62.6497853,76.5478542 65.6803215,77.2646629 67.6573935,79.370885 C69.6344655,81.4771071 70.1784166,84.5682853 69.0407162,87.2320639 C67.9030158,89.8958424 65.3021361,91.6206964 62.4264163,91.6185442 L62.4338966,91.6185442 Z" id="Shape" fill="#524FA2"></path><path d="M111.799312,73.75 L105.200688,73.75 C105.089851,73.75 105,73.6380712 105,73.5 C105,73.3619288 105.089851,73.25 105.200688,73.25 L111.799312,73.25 C111.910149,73.25 112,73.3619288 112,73.5 C112,73.6380712 111.910149,73.75 111.799312,73.75 Z" id="Path" fill="#524FA2"></path><path d="M114.797407,75.75 L110.202593,75.75 C110.090704,75.75 110,75.6380712 110,75.5 C110,75.3619288 110.090704,75.25 110.202593,75.25 L114.797407,75.25 C114.909296,75.25 115,75.3619288 115,75.5 C115,75.6380712 114.909296,75.75 114.797407,75.75 Z" id="Path" fill="#524FA2"></path><path d="M106.792359,78.75 L102.207641,78.75 C102.092964,78.75 102,78.6380712 102,78.5 C102,78.3619288 102.092964,78.25 102.207641,78.25 L106.792359,78.25 C106.907036,78.25 107,78.3619288 107,78.5 C107,78.6380712 106.907036,78.75 106.792359,78.75 Z" id="Path" fill="#524FA2"></path><path d="M103.786325,74.75 L102.213675,74.75 C102.095666,74.75 102,74.6380712 102,74.5 C102,74.3619288 102.095666,74.25 102.213675,74.25 L103.786325,74.25 C103.904334,74.25 104,74.3619288 104,74.5 C104,74.6380712 103.904334,74.75 103.786325,74.75 Z" id="Path" fill="#524FA2"></path><path d="M29.8157895,75.75 L23.1842105,75.75 C23.0824739,75.75 23,75.6380712 23,75.5 C23,75.3619288 23.0824739,75.25 23.1842105,75.25 L29.8157895,75.25 C29.9175261,75.25 30,75.3619288 30,75.5 C30,75.6380712 29.9175261,75.75 29.8157895,75.75 Z" id="Path" fill="#524FA2"></path><path d="M20.8233216,75.75 L19.1766784,75.75 C19.0791016,75.75 19,75.6380712 19,75.5 C19,75.3619288 19.0791016,75.25 19.1766784,75.25 L20.8233216,75.25 C20.9208984,75.25 21,75.3619288 21,75.5 C21,75.6380712 20.9208984,75.75 20.8233216,75.75 L20.8233216,75.75 Z" id="Path" fill="#524FA2"></path><path d="M26.8022599,77.75 L20.1977401,77.75 C20.0885313,77.75 20,77.6380712 20,77.5 C20,77.3619288 20.0885313,77.25 20.1977401,77.25 L26.8022599,77.25 C26.9114687,77.25 27,77.3619288 27,77.5 C27,77.6380712 26.9114687,77.75 26.8022599,77.75 Z" id="Path" fill="#524FA2"></path><path d="M22.8020362,86.75 L16.1979638,86.75 C16.0886314,86.75 16,86.6380712 16,86.5 C16,86.3619288 16.0886314,86.25 16.1979638,86.25 L22.8020362,86.25 C22.9113686,86.25 23,86.3619288 23,86.5 C23,86.6380712 22.9113686,86.75 22.8020362,86.75 Z" id="Path" fill="#524FA2"></path><path d="M26.8045603,85.75 L22.2035831,85.75 C22.0911472,85.75 22,85.6380712 22,85.5 C22,85.3619288 22.0911472,85.25 22.2035831,85.25 L26.7964169,85.25 C26.9088528,85.25 27,85.3619288 27,85.5 C27,85.6380712 26.9088528,85.75 26.7964169,85.75 L26.8045603,85.75 Z" id="Path" fill="#524FA2"></path><path d="M116.840348,83.75 L112.181422,83.75 C112.081226,83.75 112,83.6380712 112,83.5 C112,83.3619288 112.081226,83.25 112.181422,83.25 L116.818578,83.25 C116.918774,83.25 117,83.3619288 117,83.5 C117,83.6380712 116.918774,83.75 116.818578,83.75 L116.840348,83.75 Z" id="Path" fill="#524FA2"></path></g></g></g></svg>